<svg xmlns="http://www.w3.org/2000/svg" viewBox="0 0 358.25 209.59"><defs><style>.cls-1{fill:#8870fc;}.cls-2{fill:#3922a9;}.cls-11,.cls-12,.cls-14,.cls-15,.cls-16,.cls-17,.cls-18,.cls-19,.cls-20,.cls-21,.cls-22,.cls-23,.cls-24,.cls-25,.cls-27,.cls-3,.cls-6,.cls-7,.cls-9{fill:none;}.cls-12,.cls-3{stroke:#5cc43b;}.cls-3{stroke-linecap:round;stroke-linejoin:round;}.cls-4{fill:#ded8ff;}.cls-5{fill:#5c3bfe;}.cls-14,.cls-6{stroke:#ded8ff;}.cls-11,.cls-6,.cls-7,.cls-9{stroke-width:0.5px;}.cls-7{stroke:#947eff;}.cls-8{fill:#947eff;}.cls-16,.cls-9{stroke:#5c3bfe;}.cls-10{fill:#fff;}.cls-11,.cls-15,.cls-27{stroke:#8870fc;}.cls-13{fill:#5cc43b;}.cls-17{stroke:#cec4ff;}.cls-18{stroke:#7d62fe;}.cls-19{stroke:#8d76fe;}.cls-20{stroke:#ad9dfe;}.cls-21{stroke:#beb1ff;}.cls-22{stroke:#9d89fe;}.cls-23{stroke:#89c43b;}.cls-24{stroke:#acc43b;}.cls-25{stroke:#3922a9;}.cls-25,.cls-27{stroke-width:0.3px;}.cls-26{fill:#04020e;}</style></defs><title>Asset 1</title><g id="Layer_2" data-name="Layer 2"><g id="Layer_1-2" data-name="Layer 1"><path class="cls-1" d="M342.11,30.22l3.65,6.68,6.69,3.66-6.69,3.65-3.65,6.69-3.66-6.69-6.68-3.65,6.68-3.66Z"/><path class="cls-2" d="M345.76,36.9l-3.65-6.68V50.9l3.65-6.69,6.69-3.65Z"/><path class="cls-1" d="M217.08,99.75a18.22,18.22,0,0,0-8.28,2.59.2.2,0,0,0-.07.24l8.32,21.09a.21.21,0,0,0,.39,0c3-9,14,1.35,20.64-3.27,7-4.88,11.2-13.74,11-19.1,0-.13-.29,0-.38.07-7.79,8.87-19.83-2.39-31.61-1.6Z"/><path class="cls-3" d="M218.39,139.57l-8.6-21.81m0,0L201.19,96a18,18,0,0,1,8.06-2.65c12-1,24.59,10.38,32.32,1.15,1.65-2-3.82,14.46-11,19.44C223.81,118.62,212.48,107.69,209.79,117.76Z"/><circle class="cls-4" cx="195.96" cy="87" r="2.24"/><path class="cls-5" d="M110.75,8.59h72.3V136.67h-72.3Z"/><path class="cls-6" d="M11,41.81H5.58V169.89h72.3v-5.45"/><path class="cls-6" d="M5.67,47.14H.25V175.22h72.3v-5.43"/><path class="cls-6" d="M16.35,47.39H77.76V68.47H16.35Z"/><path class="cls-6" d="M16.35,79.2H77.76v21.08H16.35Z"/><path class="cls-6" d="M16.35,111H29.49v21.08H16.35Z"/><path class="cls-7" d="M15.06,141.75H41.22v8.55H15.06Z"/><path class="cls-8" d="M52.16,141.5H78.82v9.05H52.16Z"/><path class="cls-9" d="M49.26,139.18H81.72v13.7H49.26Z"/><path class="cls-2" d="M32.49,113H73.37v2.59H32.49Z"/><path class="cls-8" d="M32.49,116.93H56.4v2.59H32.49Z"/><path class="cls-10" d="M119,15.3h26.63v6.23H119Z"/><path class="cls-10" d="M119,59.33h39.23v8H119Z"/><path class="cls-4" d="M119,69.92h28.26v4H119Z"/><path class="cls-6" d="M119.26,80.07h6.1v9.38h-6.1Z"/><path class="cls-2" d="M128.39,81.72h47v2.65h-47Z"/><path class="cls-1" d="M128.39,85.81H155.6v2.65H128.39Z"/><path class="cls-6" d="M119.26,94.23h6.1v9.39h-6.1Z"/><path class="cls-2" d="M128.39,95.89h47v2.65h-47Z"/><path class="cls-1" d="M128.39,100H155.6v2.65H128.39Z"/><path class="cls-6" d="M119.26,108.4h6.1v9.38h-6.1Z"/><path class="cls-2" d="M128.39,110.06h47v2.65h-47Z"/><path class="cls-1" d="M128.39,114.14H155.6v2.65H128.39Z"/><path class="cls-6" d="M119.26,122.57h6.1V132h-6.1Z"/><path class="cls-2" d="M128.39,124.22h47v2.65h-47Z"/><path class="cls-1" d="M128.39,128.31H155.6V131H128.39Z"/><path class="cls-6" d="M119.26,28.91h55.85V54.12H119.26Z"/><path class="cls-10" d="M168.13,15h7.22v.58h-7.22Z"/><path class="cls-10" d="M168.13,18.13h7.22v.57h-7.22Z"/><path class="cls-10" d="M168.13,21.24h7.22v.58h-7.22Z"/><circle class="cls-2" cx="171.91" cy="63.33" r="3.45"/><path class="cls-11" d="M11.16,36.73H83V164.32H11.16Z"/><path class="cls-12" d="M81.93,145.61c5.17.63,15.58-3.32,15.87-24.16.37-26.06,4.24-34.87,11.88-36m0,.62-3.45-1.46m3.45,1.46-2.45,3.27"/><circle class="cls-13" cx="81.72" cy="146.02" r="2.05"/><path class="cls-14" d="M165.23,152h140.7v33.19H165.23Z"/><path class="cls-12" d="M165.9,162.15c2.26-.36,7.58.65,10.73,7.64,2,4.5,5.32,5.81,8.31,5.27,5.64-1,6.33-9.31,11.47-11.86a10.7,10.7,0,0,1,4.79-1"/><path class="cls-12" d="M236.5,162.15c-2.27-.36-7.59.65-10.73,7.64-2,4.5-5.32,5.81-8.31,5.27-5.65-1-6.34-9.31-11.48-11.86a10.68,10.68,0,0,0-4.78-1"/><path class="cls-12" d="M234.67,162.15c2.27-.36,7.59.65,10.73,7.64,2,4.5,5.32,5.81,8.31,5.27,5.65-1,6.34-9.31,11.48-11.86a10.68,10.68,0,0,1,4.78-1"/><path class="cls-12" d="M305.27,162.15c-2.26-.36-7.58.65-10.73,7.64-2,4.5-5.32,5.81-8.31,5.27-5.64-1-6.34-9.31-11.47-11.86a10.7,10.7,0,0,0-4.79-1"/><path class="cls-14" d="M305.78,152h52v33.19h-52Z"/><circle class="cls-15" cx="319.43" cy="164.48" r="2.08"/><circle class="cls-15" cx="327.65" cy="164.48" r="2.08"/><circle class="cls-15" cx="335.88" cy="164.48" r="2.08"/><circle class="cls-15" cx="344.11" cy="164.48" r="2.08"/><circle class="cls-15" cx="319.43" cy="172.79" r="2.08"/><circle class="cls-15" cx="327.65" cy="172.79" r="2.08"/><circle class="cls-15" cx="335.88" cy="172.79" r="2.08"/><circle class="cls-15" cx="344.11" cy="172.79" r="2.08"/><path class="cls-14" d="M299.66,118.73h33.46v33.46H299.66Z"/><circle class="cls-5" cx="316.39" cy="135.46" r="11.96"/><circle class="cls-10" cx="316.39" cy="135.46" r="6.58" transform="translate(-3.11 263.4) rotate(-45)"/><path class="cls-4" d="M311.74,140.11a6.58,6.58,0,0,0,9.31-9.31Z"/><path class="cls-14" d="M299.81,118.73H266.35v33.45h33.46Z"/><path class="cls-12" d="M289.6,131.87l-6.52,10.79-6.52-10.79Z"/><path class="cls-16" d="M64.8,0V4.88"/><path class="cls-14" d="M71.14,2.44,67.7,5.89"/><path class="cls-17" d="M73.37,8.59H68.5"/><path class="cls-18" d="M58.46,2.44l3.45,3.45"/><path class="cls-19" d="M56.23,8.59h4.88"/><path class="cls-20" d="M64.8,17.18V12.3"/><path class="cls-21" d="M71.14,14.74,67.7,11.29"/><path class="cls-22" d="M58.46,14.74l3.45-3.45"/><circle class="cls-12" cx="116.24" cy="183.83" r="25.26"/><circle class="cls-23" cx="116.23" cy="183.83" r="17.36"/><circle class="cls-24" cx="116.24" cy="183.83" r="8.77"/><path class="cls-1" d="M288,49.5h12.35v69.05H288Z"/><path class="cls-25" d="M294.14,49.5v69.05"/><path class="cls-2" d="M300.31,49.5h12.35v69.05H300.31Z"/><path class="cls-4" d="M300.31,49.5h12.35L300.31,26.71Z"/><path class="cls-10" d="M300.31,49.5H288l12.34-22.79Z"/><path class="cls-2" d="M300.31,26.71v11.4h-6.17Z"/><path class="cls-26" d="M300.31,26.71v11.4h6.18Z"/><path class="cls-27" d="M306.49,49.5v69.05"/><path class="cls-9" d="M227.32,27H265.6V75.17H227.32Z"/><path class="cls-9" d="M230.11,27.13V74.89"/><path class="cls-9" d="M258.93,27.13V74.89"/><path class="cls-9" d="M260.55,27.13V74.89"/><path class="cls-9" d="M262.18,27.13V74.89"/><path class="cls-9" d="M263.8,27.13V74.89"/><path class="cls-2" d="M234,33.15h14.8v7.41H234Z"/><path class="cls-4" d="M234,44.09h21.13V46H234Z"/><path class="cls-4" d="M234,49.56h21.13V51.5H234Z"/><path class="cls-4" d="M234,55h21.13V57H234Z"/><path class="cls-4" d="M234,60.5h21.13v1.93H234Z"/><path class="cls-4" d="M234,66h21.13V67.9H234Z"/><path class="cls-2" d="M202.93,34.54l-2,3.71-3.71,2,3.71,2,2,3.71,2-3.71,3.71-2-3.71-2Z"/><path class="cls-26" d="M200.9,38.25l2-3.71V46l-2-3.71-3.71-2Z"/></g></g></svg>