<svg xmlns="http://www.w3.org/2000/svg" xmlns:xlink="http://www.w3.org/1999/xlink" viewBox="0 0 472.74 176.01"><defs><style>.cls-1{fill:#010002;}.cls-2{fill:#5cc43b;}.cls-3{fill:#cc3d51;stroke:#000;stroke-miterlimit:10;stroke-width:0.25px;}.cls-4{fill:url(#radial-gradient);}.cls-5{fill:url(#linear-gradient);}.cls-6{fill:url(#linear-gradient-2);}.cls-7{fill:url(#linear-gradient-3);}.cls-8{fill:url(#linear-gradient-4);}.cls-9{fill:url(#linear-gradient-5);}.cls-10{fill:url(#linear-gradient-6);}</style><radialGradient id="radial-gradient" cx="98.73" cy="1639.26" r="8.69" gradientTransform="matrix(1, 0, 0, -1, 0, 1724.83)" gradientUnits="userSpaceOnUse"><stop offset="0" stop-color="#4896d2"/><stop offset="1" stop-color="#1a2165"/></radialGradient><linearGradient id="linear-gradient" x1="79.86" y1="1639.98" x2="94.48" y2="1662.49" gradientTransform="matrix(1, 0, 0, -1, 0, 1724.83)" xlink:href="#radial-gradient"/><linearGradient id="linear-gradient-2" x1="85.69" y1="1665.92" x2="122.01" y2="1651.25" gradientTransform="matrix(1, 0, 0, -1, 0, 1724.83)" xlink:href="#radial-gradient"/><linearGradient id="linear-gradient-3" x1="-2727.14" y1="5056.37" x2="-2712.52" y2="5078.89" gradientTransform="matrix(-0.5, -0.87, -0.87, 0.5, 3122.86, -4780.85)" xlink:href="#radial-gradient"/><linearGradient id="linear-gradient-4" x1="-2721.31" y1="5082.32" x2="-2684.98" y2="5067.64" gradientTransform="matrix(-0.5, -0.87, -0.87, 0.5, 3122.86, -4780.85)" xlink:href="#radial-gradient"/><linearGradient id="linear-gradient-5" x1="1635.28" y1="5779.33" x2="1649.9" y2="5801.85" gradientTransform="matrix(-0.5, 0.87, 0.87, 0.5, -4072.62, -4232.89)" xlink:href="#radial-gradient"/><linearGradient id="linear-gradient-6" x1="1641.11" y1="5805.28" x2="1677.44" y2="5790.6" gradientTransform="matrix(-0.5, 0.87, 0.87, 0.5, -4072.62, -4232.89)" xlink:href="#radial-gradient"/></defs><title>Asset 3</title><g id="Layer_2" data-name="Layer 2"><g id="Layer_1-2" data-name="Layer 1"><path class="cls-1" d="M201.94,90.19c.13-5.9-2.68-11.63-8.11-16.91a6.51,6.51,0,0,0,.09-1,7.12,7.12,0,0,0-7.12-7.12,7,7,0,0,0-2.93.65A89,89,0,0,0,172.22,60c-3.48-1.45-7.24-2.76-11.12-4,7.45-25.31,6.07-45.53-5.64-53a19.74,19.74,0,0,0-10.83-3C132.52,0,116.83,8.86,101,23.67,85.12,8.86,69.43,0,57.32,0A19.74,19.74,0,0,0,46.49,3C39.12,7.69,35.84,17.45,36.26,30.32a7.08,7.08,0,0,0,1.5,13.18c.63,3.33,1.5,6.82,2.48,10.39C15.83,60.79.3,72.28,0,85.82-.24,97.18,10.31,107.91,29.73,116c3.5,1.47,7.28,2.78,11.18,4-1.15,3.93-2.16,7.8-2.91,11.52-4.09,20.64-1.07,35.38,8.5,41.51a19.73,19.73,0,0,0,10.83,3c12.11,0,27.8-8.85,43.65-23.66C116.83,167.16,132.53,176,144.63,176h0a19.73,19.73,0,0,0,10.83-3c9.56-6.13,12.58-20.87,8.49-41.51-.61-3-1.41-6.2-2.29-9.39C186.1,115.23,201.65,103.74,201.94,90.19ZM144.63,4.61A15.18,15.18,0,0,1,153,6.85c9.75,6.24,10.37,24.71,3.59,47.77a203.75,203.75,0,0,0-33.37-6.26,211.45,211.45,0,0,0-18.87-21.48C119.19,13,133.77,4.61,144.63,4.61Zm-13,103.05c-3.68,5.74-7.55,11.2-11.52,16.39-6.46.4-13.13.53-19.94.38-6.44-.13-12.77-.51-18.94-1.13-3.77-5-7.45-10.17-11-15.64C66.09,101.1,62.35,94.51,59,88c3.39-6.54,7.14-13.11,11.31-19.62C74,62.61,77.85,57.16,81.83,52c4.71-.29,9.54-.44,14.46-.44,1.81,0,3.64,0,5.47.06,6.43.13,12.77.51,18.94,1.13,3.76,5,7.44,10.17,11,15.63,4.16,6.51,7.92,13.09,11.3,19.63C139.6,94.51,135.86,101.1,131.65,107.66Zm13.91-14.59a187.36,187.36,0,0,1,10.31,25.71,191,191,0,0,1-29.59,4.81q4.75-6.44,9.25-13.44C139.2,104.43,142.53,98.72,145.56,93.07ZM101,145.89a204.5,204.5,0,0,1-15.89-17.66c4.93.4,9.92.7,15,.81,1.86,0,3.73.06,5.57.06h0c3.62,0,7.18-.07,10.66-.22A198.55,198.55,0,0,1,101,145.89Zm-26-23.34A192.78,192.78,0,0,1,46.64,117a189,189,0,0,1,9.75-23.89c3,5.64,6.36,11.35,10,17.07C69.17,114.45,72,118.57,74.93,122.55ZM56.41,82.89A192,192,0,0,1,46.17,57.21a192.65,192.65,0,0,1,29.5-4.79q-4.76,6.45-9.25,13.45C62.8,71.51,59.46,77.2,56.41,82.89ZM101,30.12a204.4,204.4,0,0,1,15.9,17.66c-4.93-.39-9.92-.7-15-.81-1.86,0-3.72-.06-5.57-.06-3.62,0-7.18.08-10.68.22A206.9,206.9,0,0,1,101,30.12Zm34.56,35.75q-4.12-6.45-8.51-12.41A195,195,0,0,1,155.24,59a194.7,194.7,0,0,1-9.7,23.86C142.49,77.21,139.15,71.51,135.53,65.87Zm-93-22.82a7.11,7.11,0,0,0-1.59-13.41c-.32-10.87,2.19-19,8-22.79a15.18,15.18,0,0,1,8.34-2.24c10.87,0,25.44,8.4,40.32,22.28a210.33,210.33,0,0,0-18.2,20.59,200.1,200.1,0,0,0-34.63,5.19C43.87,49.34,43.13,46.15,42.53,43.05Zm-11,68.71C14.21,104.53,4.41,95.13,4.61,85.92,4.85,74.7,19.35,64.71,41.53,58.44A198.32,198.32,0,0,0,53.79,88,200.61,200.61,0,0,0,42.24,115.6C38.48,114.42,34.86,113.16,31.5,111.76Zm25.82,59.66A15.1,15.1,0,0,1,49,169.16c-7.75-5-10.1-18.34-6.46-36.72.71-3.57,1.68-7.28,2.79-11.06a202.62,202.62,0,0,0,33.45,6.28,214.89,214.89,0,0,0,18.87,21.48C82.76,163,68.18,171.42,57.32,171.42Zm102.11-39c3.65,18.38,1.29,31.76-6.45,36.73a15.24,15.24,0,0,1-8.35,2.25h0c-10.87,0-25.44-8.42-40.32-22.28a210.34,210.34,0,0,0,18.2-20.6,197.89,197.89,0,0,0,34.69-5.21C158.07,126.43,158.84,129.49,159.43,132.44Zm.9-14.84A198,198,0,0,0,148.16,88a200.08,200.08,0,0,0,11.58-27.6c3.74,1.19,7.36,2.44,10.71,3.84a88.66,88.66,0,0,1,10,4.9,7.09,7.09,0,0,0,11.11,8.41c3.85,4.06,5.88,8.31,5.79,12.52C197.1,101.32,182.55,111.31,160.33,117.6Z"/><path class="cls-2" d="M243.53,129a25.66,25.66,0,0,1-8-1.22,17,17,0,0,1-6.47-3.88,18.28,18.28,0,0,1-4.33-6.8,28.11,28.11,0,0,1-1.57-9.89V106a25.59,25.59,0,0,1,1.6-9.52,18.28,18.28,0,0,1,4.37-6.56A17.43,17.43,0,0,1,235.52,86a24.23,24.23,0,0,1,7.82-1.25,24.77,24.77,0,0,1,6.65.85,17.33,17.33,0,0,1,5.53,2.63,14.75,14.75,0,0,1,4,4.42,17.13,17.13,0,0,1,2.17,6.25h-9.85a10.08,10.08,0,0,0-1.48-3,8.15,8.15,0,0,0-2-2,7.75,7.75,0,0,0-2.42-1,11.91,11.91,0,0,0-6.68.4,8.31,8.31,0,0,0-3.3,2.26,10.75,10.75,0,0,0-2.2,4.12A21.77,21.77,0,0,0,233,106v1.22a21.44,21.44,0,0,0,.85,6.5,11.92,11.92,0,0,0,2.29,4.3,8.68,8.68,0,0,0,3.36,2.41,10.77,10.77,0,0,0,4.05.77,14.1,14.1,0,0,0,3.82-.52,9.17,9.17,0,0,0,3.21-1.62,8.52,8.52,0,0,0,2.26-2.81,10.05,10.05,0,0,0,1-4.09h-9V105.9h17.89v2.5a26.94,26.94,0,0,1-1.41,9.19,17.36,17.36,0,0,1-3.92,6.4,15.68,15.68,0,0,1-6,3.76A23.69,23.69,0,0,1,243.53,129Z"/><path class="cls-2" d="M269.26,128.23V95.89h7.66v5a8.17,8.17,0,0,1,1.26-2A10.29,10.29,0,0,1,280.12,97a9.75,9.75,0,0,1,2.55-1.31,9.1,9.1,0,0,1,3-.49,10.52,10.52,0,0,1,1.79.12c.44.08.85.17,1.22.25v7.08a10.06,10.06,0,0,0-1.5-.4,12.21,12.21,0,0,0-2.45-.21,8,8,0,0,0-3.11.57,6.93,6.93,0,0,0-2.26,1.53,6.05,6.05,0,0,0-1.38,2.32,9.14,9.14,0,0,0-.47,3v18.85Z"/><path class="cls-2" d="M308.37,129a20.91,20.91,0,0,1-6.53-1,14.87,14.87,0,0,1-5.36-3,14.1,14.1,0,0,1-3.61-5.19,18.84,18.84,0,0,1-1.32-7.35v-1.22a17.77,17.77,0,0,1,1.28-7,13.88,13.88,0,0,1,8.6-8,19.63,19.63,0,0,1,6.31-1q8,0,12.12,4.06T324,110.84v3.36H300a8.45,8.45,0,0,0,.76,3.75,7.51,7.51,0,0,0,1.91,2.53,7,7,0,0,0,2.67,1.41,11.15,11.15,0,0,0,3,.42,10.32,10.32,0,0,0,4.87-.94,5,5,0,0,0,2.35-2.59h7.78a12.07,12.07,0,0,1-1.79,4.42,11.34,11.34,0,0,1-3.2,3.2,14.05,14.05,0,0,1-4.45,1.93A23.12,23.12,0,0,1,308.37,129ZM300,108.65H315.9a7.69,7.69,0,0,0-.62-3.27,5.89,5.89,0,0,0-1.7-2.13,6.38,6.38,0,0,0-2.48-1.16,12.75,12.75,0,0,0-3-.34,11.29,11.29,0,0,0-2.92.37,7,7,0,0,0-2.54,1.22,6.37,6.37,0,0,0-1.82,2.16A7.11,7.11,0,0,0,300,108.65Z"/><path class="cls-2" d="M345.22,129a20.91,20.91,0,0,1-6.53-1,15,15,0,0,1-5.37-3,14.1,14.1,0,0,1-3.61-5.19,18.85,18.85,0,0,1-1.31-7.35v-1.22a17.6,17.6,0,0,1,1.28-7,13.82,13.82,0,0,1,8.6-8,19.63,19.63,0,0,1,6.31-1c5.32,0,9.35,1.35,12.12,4.06s4.14,6.58,4.14,11.62v3.36h-24a8.59,8.59,0,0,0,.75,3.75,7.53,7.53,0,0,0,1.92,2.53,7,7,0,0,0,2.67,1.41,11.1,11.1,0,0,0,3,.42,10.25,10.25,0,0,0,4.86-.94,5,5,0,0,0,2.36-2.59h7.78a12.07,12.07,0,0,1-1.79,4.42,11.34,11.34,0,0,1-3.2,3.2,14.11,14.11,0,0,1-4.46,1.93A23,23,0,0,1,345.22,129Zm-8.35-20.32h15.88a7.54,7.54,0,0,0-.63-3.27,5.76,5.76,0,0,0-1.69-2.13,6.38,6.38,0,0,0-2.48-1.16,12.81,12.81,0,0,0-3-.34,11.29,11.29,0,0,0-2.92.37,7.09,7.09,0,0,0-2.55,1.22,6.48,6.48,0,0,0-1.82,2.16A7.24,7.24,0,0,0,336.87,108.65Z"/><path class="cls-2" d="M366.81,128.23V95.89h7.66v5a10.36,10.36,0,0,1,1.6-2.2,9.62,9.62,0,0,1,2.36-1.8,13,13,0,0,1,3.17-1.22,16.11,16.11,0,0,1,4-.46q6.08,0,9.1,3.17t3,9.16v20.74h-8.29V109.32a8.31,8.31,0,0,0-1.56-5.46q-1.57-1.86-5.28-1.86a8.62,8.62,0,0,0-3.39.61,6.5,6.5,0,0,0-2.35,1.61,6.4,6.4,0,0,0-1.35,2.35,8.89,8.89,0,0,0-.44,2.75v18.91Z"/><path class="cls-3" d="M406.68,94a11.79,11.79,0,0,1-3.61-.51A7.81,7.81,0,0,1,400.4,92a5.91,5.91,0,0,1-1.64-2.15,6.94,6.94,0,0,1,0-5.51,4.92,4.92,0,0,1,1.61-1.92A7.2,7.2,0,0,1,403,81.34a16.46,16.46,0,0,1,3.61-.36h8.06V79.5a7,7,0,0,0-.35-2.36,3.47,3.47,0,0,0-1.08-1.52,4.4,4.4,0,0,0-1.8-.83,10.92,10.92,0,0,0-2.49-.25,9,9,0,0,0-2.27.25,5.6,5.6,0,0,0-1.59.64,2.72,2.72,0,0,0-1,.91,3,3,0,0,0-.43,1.09H399.6a5.14,5.14,0,0,1,.82-2.45,6.6,6.6,0,0,1,2-2,10.25,10.25,0,0,1,3-1.3,14.87,14.87,0,0,1,3.85-.47,16.86,16.86,0,0,1,4,.43,8.08,8.08,0,0,1,3,1.38,6.33,6.33,0,0,1,1.92,2.44,8.64,8.64,0,0,1,.68,3.59V88c0,1.16,0,2.17,0,3a21,21,0,0,0,.21,2.54h-3.6a17.25,17.25,0,0,1-.19-1.8c0-.56-.05-1.2-.05-1.92a5.87,5.87,0,0,1-1.29,1.61A8.79,8.79,0,0,1,412,92.74a10.93,10.93,0,0,1-2.44.88A12.27,12.27,0,0,1,406.68,94Zm.89-3.3a10.6,10.6,0,0,0,2.74-.35,7.61,7.61,0,0,0,2.27-1,5,5,0,0,0,1.55-1.7,4.68,4.68,0,0,0,.56-2.29V83.79h-7.36a6.87,6.87,0,0,0-3.61.81,2.77,2.77,0,0,0-1.31,2.54,3.11,3.11,0,0,0,1.24,2.52A6.29,6.29,0,0,0,407.57,90.65Z"/><path class="cls-3" d="M434.74,94a15.92,15.92,0,0,1-4.29-.51,10.3,10.3,0,0,1-3-1.39,6.81,6.81,0,0,1-2-2,8,8,0,0,1-1-2.46h4.13a3.13,3.13,0,0,0,.58,1.26,4.05,4.05,0,0,0,1.17,1,6.78,6.78,0,0,0,1.83.71,11,11,0,0,0,2.6.26,13.28,13.28,0,0,0,2.91-.26,6.5,6.5,0,0,0,1.89-.71,2.77,2.77,0,0,0,1.06-1,2.58,2.58,0,0,0,.33-1.26,2.51,2.51,0,0,0-.31-1.24,2.85,2.85,0,0,0-1.08-1,8.12,8.12,0,0,0-2.08-.78,27,27,0,0,0-3.38-.58,25.59,25.59,0,0,1-3.72-.72A9.74,9.74,0,0,1,427.55,82a5.73,5.73,0,0,1-1.78-1.9,5.33,5.33,0,0,1-.63-2.65,4.79,4.79,0,0,1,.61-2.35,5.85,5.85,0,0,1,1.82-2,9.46,9.46,0,0,1,3-1.37,15.7,15.7,0,0,1,4.17-.49,12.94,12.94,0,0,1,3.84.51,8.88,8.88,0,0,1,2.77,1.39,7,7,0,0,1,1.8,2,8.41,8.41,0,0,1,1,2.48H440a4.16,4.16,0,0,0-1.59-2.35,6.08,6.08,0,0,0-3.66-.91,11.66,11.66,0,0,0-2.58.24,5.6,5.6,0,0,0-1.68.67,2.42,2.42,0,0,0-.94,1,2.52,2.52,0,0,0-.28,1.17,2.55,2.55,0,0,0,.3,1.28,2.66,2.66,0,0,0,1,1,6.73,6.73,0,0,0,1.93.68,29,29,0,0,0,3,.48,27.62,27.62,0,0,1,4.08.72,10.63,10.63,0,0,1,3,1.28,5.56,5.56,0,0,1,1.85,2,5.75,5.75,0,0,1,.63,2.77,5.15,5.15,0,0,1-.63,2.46,5.83,5.83,0,0,1-1.9,2,10.38,10.38,0,0,1-3.21,1.39A18.17,18.17,0,0,1,434.74,94Z"/><path class="cls-3" d="M450.91,93.54V64.63H455v17.1l11.43-10.08h5.06l-10.31,9,11.25,12.84h-5.25l-8.95-10.32L455,85.9v7.64Z"/><path class="cls-4" d="M104.85,84.43a6.17,6.17,0,1,0,.45,8.72A6.18,6.18,0,0,0,104.85,84.43Z"/><path class="cls-5" d="M83,65.52a29.52,29.52,0,0,0-9.31,11.82,18.66,18.66,0,0,1,13.12,12c1-.33,3.19-1.6,4.7-6.5,2-6.55,5.86-12.86,10.84-15C97.41,63,90.86,61.84,83,65.52Z"/><path class="cls-6" d="M123.36,70.26h0A29.41,29.41,0,0,0,83,65.52c10.88-5.11,19.27-.9,24.41,9.75A17.32,17.32,0,0,0,123.36,70.26Z"/><path class="cls-7" d="M89.21,116.07a29.33,29.33,0,0,0,14.89,2.15A18.67,18.67,0,0,1,108,100.84c-.79-.71-3-2-8-.82-6.69,1.53-14.07,1.35-18.39-1.9C79.84,104.88,82.11,111.12,89.21,116.07Z"/><path class="cls-8" d="M73.15,78.77h0a29.4,29.4,0,0,0,16.06,37.3c-9.86-6.87-10.41-16.24-3.76-26A17.31,17.31,0,0,0,73.15,78.77Z"/><path class="cls-9" d="M129.89,85.44a29.46,29.46,0,0,0-5.58-14,18.66,18.66,0,0,1-17,5.34c-.22,1-.21,3.56,3.28,7.31,4.66,5,8.2,11.52,7.55,16.89C124.89,99.15,129.16,94.06,129.89,85.44Z"/><path class="cls-10" d="M105.62,118h0a29.41,29.41,0,0,0,24.27-32.56c-1,12-8.86,17.13-20.64,16.26A17.31,17.31,0,0,0,105.62,118Z"/></g></g></svg>