<svg xmlns="http://www.w3.org/2000/svg" viewBox="0 0 490.2 490.2"><title>Asset 2</title><g id="Layer_2" data-name="Layer 2"><g id="Capa_1" data-name="Capa 1"><path d="M418.5,418.5c95.6-95.6,95.6-251.2,0-346.8s-251.2-95.6-346.8,0-95.6,251.2,0,346.8S322.9,514.1,418.5,418.5ZM89,89C175.1,2.9,315.1,2.9,401.2,89s86.1,226.1,0,312.2-226.1,86.1-312.2,0S3,175.1,89,89Z"/><path d="M324.8,232.8H260a5.15,5.15,0,0,1-1.46.2H227a5.15,5.15,0,0,1-1.46-.2H165.8a12.2,12.2,0,0,0,0,24.4h67.3v.65a5.15,5.15,0,0,1,1.9-.35,5.55,5.55,0,0,1,1.18.12,53.53,53.53,0,0,1,14.25.36,4.94,4.94,0,0,1,2.07-.48h4.9v-.2h67.3a12.5,12.5,0,0,0,8.7-3.6A12.32,12.32,0,0,0,337,245,12.12,12.12,0,0,0,324.8,232.8Z"/></g></g></svg>